<?xml version="1.0" encoding="utf-8"?>
<!-- Svg Vector Icons : http://www.onlinewebfonts.com/icon -->
<!DOCTYPE svg PUBLIC "-//W3C//DTD SVG 1.1//EN" "http://www.w3.org/Graphics/SVG/1.1/DTD/svg11.dtd">
<svg version="1.1" xmlns="http://www.w3.org/2000/svg" xmlns:xlink="http://www.w3.org/1999/xlink" x="0px" y="0px" viewBox="0 0 1000 1000" enable-background="new 0 0 1000 1000" xml:space="preserve">
<metadata> Svg Vector Icons : http://www.onlinewebfonts.com/icon </metadata>
<g><path d="M233.9,575.3l-83.3-56l-42.1,20.3l46.7,98.4l101.9-58.9L233.9,575.3z"/><path d="M225.4,646.4l-70.1,9.7l55.8,60.6l19.8-11.9L225.4,646.4z"/><path d="M40.9,570.8l-30.9,7l128.8,69.5L206,619L40.9,570.8z"/><path d="M699.6,479.4l-160.4,70.4l134,185.2l34.8-12.4L699.6,479.4z"/><path d="M962.8,307.9c-52-19.1-127.7,15.3-127.7,15.3C203.5,588.4,124.3,644.9,124.3,644.9c-27.8,18.6,2.9,18.6,2.9,18.6l151.9-17.4c85.8-8.1,146.5-39.5,146.5-39.5c51.7-18.7,493.4-212.3,493.4-212.3c23.7-12.7,47.3-34.6,47.3-34.6c16.1-11.7,23.6-35.4,23.6-35.4C991.8,312.7,962.8,307.9,962.8,307.9z"/><path d="M900.7,371.2l-614.6,266c-10,4.3-7,9-7,9c2.6-0.3,5.2-0.5,7.7-0.8c27.6-3.1,52.4-8.5,73.1-14.3c40.6-11.4,65.7-24.3,65.7-24.3c51.7-18.7,493.4-212.3,493.4-212.3c23.7-12.7,47.3-34.6,47.3-34.6C958.1,351.6,900.7,371.2,900.7,371.2z"/><path d="M121,278.6L93.4,265l-12.6,4l16.5,26.9L466,522.7l166.7-72.4L121,278.6z"/></g>
</svg>